<?xml version="1.0" encoding="us-ascii" standalone="no"?><svg xmlns="http://www.w3.org/2000/svg" xmlns:xlink="http://www.w3.org/1999/xlink" contentStyleType="text/css" height="490px" preserveAspectRatio="none" style="width:383px;height:490px;background:#FFFFFF;" version="1.1" viewBox="0 0 383 490" width="383px" zoomAndPan="magnify"><defs/><g><rect fill="none" height="20.9531" style="stroke:none;stroke-width:1.0;" width="350" x="15" y="12.7451"/><ellipse cx="103" cy="48.6982" fill="#222222" rx="10" ry="10" style="stroke:#222222;stroke-width:1.0;"/><rect fill="#F1F1F1" height="33.9688" rx="12.5" ry="12.5" style="stroke:#181818;stroke-width:0.5;" width="152" x="27" y="78.6982"/><text fill="#000000" font-family="sans-serif" font-size="12" lengthAdjust="spacing" textLength="132" x="37" y="99.8369">&#21220;&#24608;&#31649;&#29702;&#12471;&#12473;&#12486;&#12512;&#12434;&#38283;&#12367;</text><rect fill="#F1F1F1" height="33.9688" rx="12.5" ry="12.5" style="stroke:#181818;stroke-width:0.5;" width="92" x="57" y="186.6357"/><text fill="#000000" font-family="sans-serif" font-size="12" lengthAdjust="spacing" textLength="72" x="67" y="207.7744">&#12525;&#12464;&#12452;&#12531;&#12377;&#12427;</text><rect fill="#F1F1F1" height="33.9688" rx="12.5" ry="12.5" style="stroke:#181818;stroke-width:0.5;" width="140" x="33" y="294.5732"/><text fill="#000000" font-family="sans-serif" font-size="12" lengthAdjust="spacing" textLength="120" x="43" y="315.7119">&#20241;&#25001;&#32066;&#20102;&#12508;&#12479;&#12531;&#12434;&#25276;&#12377;</text><rect fill="#F1F1F1" height="33.9688" rx="12.5" ry="12.5" style="stroke:#181818;stroke-width:0.5;" width="164" x="21" y="402.5107"/><text fill="#000000" font-family="sans-serif" font-size="12" lengthAdjust="spacing" textLength="144" x="31" y="423.6494">&#21220;&#24608;&#31649;&#29702;&#12471;&#12473;&#12486;&#12512;&#12434;&#38281;&#12376;&#12427;</text><ellipse cx="103" cy="467.4795" fill="none" rx="11" ry="11" style="stroke:#222222;stroke-width:1.0;"/><ellipse cx="103" cy="467.4795" fill="#222222" rx="6" ry="6" style="stroke:#222222;stroke-width:1.0;"/><line style="stroke:#000000;stroke-width:1.5;" x1="15" x2="15" y1="12.7451" y2="478.4795"/><rect fill="#F1F1F1" height="33.9688" rx="12.5" ry="12.5" style="stroke:#181818;stroke-width:0.5;" width="164" x="195" y="132.667"/><text fill="#000000" font-family="sans-serif" font-size="12" lengthAdjust="spacing" textLength="144" x="205" y="153.8057">&#12525;&#12464;&#12452;&#12531;&#12506;&#12540;&#12472;&#12434;&#34920;&#31034;&#12377;&#12427;</text><rect fill="#F1F1F1" height="33.9688" rx="12.5" ry="12.5" style="stroke:#181818;stroke-width:0.5;" width="140" x="207" y="240.6045"/><text fill="#000000" font-family="sans-serif" font-size="12" lengthAdjust="spacing" textLength="120" x="217" y="261.7432">&#25171;&#21051;&#12506;&#12540;&#12472;&#12434;&#34920;&#31034;&#12377;&#12427;</text><rect fill="#F1F1F1" height="33.9688" rx="12.5" ry="12.5" style="stroke:#181818;stroke-width:0.5;" width="152" x="201" y="348.542"/><text fill="#000000" font-family="sans-serif" font-size="12" lengthAdjust="spacing" textLength="132" x="211" y="369.6807">&#20241;&#25001;&#32066;&#20102;&#26085;&#26178;&#12434;&#35352;&#37682;&#12377;&#12427;</text><line style="stroke:#000000;stroke-width:1.5;" x1="189" x2="189" y1="12.7451" y2="478.4795"/><line style="stroke:#000000;stroke-width:1.5;" x1="363" x2="363" y1="12.7451" y2="478.4795"/><line style="stroke:#181818;stroke-width:1.0;" x1="103" x2="103" y1="58.6982" y2="78.6982"/><polygon fill="#181818" points="99,68.6982,103,78.6982,107,68.6982,103,72.6982" style="stroke:#181818;stroke-width:1.0;"/><line style="stroke:#181818;stroke-width:1.0;" x1="103" x2="103" y1="436.4795" y2="456.4795"/><polygon fill="#181818" points="99,446.4795,103,456.4795,107,446.4795,103,450.4795" style="stroke:#181818;stroke-width:1.0;"/><line style="stroke:#181818;stroke-width:1.0;" x1="103" x2="103" y1="112.667" y2="117.667"/><line style="stroke:#181818;stroke-width:1.0;" x1="103" x2="277" y1="117.667" y2="117.667"/><line style="stroke:#181818;stroke-width:1.0;" x1="277" x2="277" y1="117.667" y2="132.667"/><polygon fill="#181818" points="273,122.667,277,132.667,281,122.667,277,126.667" style="stroke:#181818;stroke-width:1.0;"/><line style="stroke:#181818;stroke-width:1.0;" x1="277" x2="277" y1="166.6357" y2="171.6357"/><line style="stroke:#181818;stroke-width:1.0;" x1="277" x2="103" y1="171.6357" y2="171.6357"/><line style="stroke:#181818;stroke-width:1.0;" x1="103" x2="103" y1="171.6357" y2="186.6357"/><polygon fill="#181818" points="99,176.6357,103,186.6357,107,176.6357,103,180.6357" style="stroke:#181818;stroke-width:1.0;"/><line style="stroke:#181818;stroke-width:1.0;" x1="103" x2="103" y1="220.6045" y2="225.6045"/><line style="stroke:#181818;stroke-width:1.0;" x1="103" x2="277" y1="225.6045" y2="225.6045"/><line style="stroke:#181818;stroke-width:1.0;" x1="277" x2="277" y1="225.6045" y2="240.6045"/><polygon fill="#181818" points="273,230.6045,277,240.6045,281,230.6045,277,234.6045" style="stroke:#181818;stroke-width:1.0;"/><line style="stroke:#181818;stroke-width:1.0;" x1="277" x2="277" y1="274.5732" y2="279.5732"/><line style="stroke:#181818;stroke-width:1.0;" x1="277" x2="103" y1="279.5732" y2="279.5732"/><line style="stroke:#181818;stroke-width:1.0;" x1="103" x2="103" y1="279.5732" y2="294.5732"/><polygon fill="#181818" points="99,284.5732,103,294.5732,107,284.5732,103,288.5732" style="stroke:#181818;stroke-width:1.0;"/><line style="stroke:#181818;stroke-width:1.0;" x1="103" x2="103" y1="328.542" y2="333.542"/><line style="stroke:#181818;stroke-width:1.0;" x1="103" x2="277" y1="333.542" y2="333.542"/><line style="stroke:#181818;stroke-width:1.0;" x1="277" x2="277" y1="333.542" y2="348.542"/><polygon fill="#181818" points="273,338.542,277,348.542,281,338.542,277,342.542" style="stroke:#181818;stroke-width:1.0;"/><line style="stroke:#181818;stroke-width:1.0;" x1="277" x2="277" y1="382.5107" y2="387.5107"/><line style="stroke:#181818;stroke-width:1.0;" x1="277" x2="103" y1="387.5107" y2="387.5107"/><line style="stroke:#181818;stroke-width:1.0;" x1="103" x2="103" y1="387.5107" y2="402.5107"/><polygon fill="#181818" points="99,392.5107,103,402.5107,107,392.5107,103,396.5107" style="stroke:#181818;stroke-width:1.0;"/><text fill="#000000" font-family="sans-serif" font-size="18" lengthAdjust="spacing" textLength="36" x="84" y="29.4531">&#31038;&#21729;</text><text fill="#000000" font-family="sans-serif" font-size="18" lengthAdjust="spacing" textLength="144" x="204" y="29.4531">&#21220;&#24608;&#31649;&#29702;&#12471;&#12473;&#12486;&#12512;</text><!--SRC=[ZP112e9G54NdVqcscbPGf4C7-Jv8Pb0fb4O31GCR5554PLABkVf_xY8DX2AInk_SS-3fChhbRgWpLMltDARaTYJwWTo6ScA2Jg0Bk0aUW9nYPiCOjvZ-Yz6P0hu1xK0H-05y0Pw2pkNs4SOoIc3u8BiqrD5Flhus-8NbveFhF-OidGfpBO-K9ULs2RfN2NB4C2tXvihxLinNmgSg57l5QFyTQloO1SDxyQhMwJu1]--></g></svg>