<?xml version="1.0" encoding="us-ascii" standalone="no"?><svg xmlns="http://www.w3.org/2000/svg" xmlns:xlink="http://www.w3.org/1999/xlink" contentStyleType="text/css" height="760px" preserveAspectRatio="none" style="width:443px;height:760px;background:#FFFFFF;" version="1.1" viewBox="0 0 443 760" width="443px" zoomAndPan="magnify"><defs/><g><rect fill="none" height="20.9531" style="stroke:none;stroke-width:1.0;" width="410" x="15" y="12.7451"/><ellipse cx="127" cy="48.6982" fill="#222222" rx="10" ry="10" style="stroke:#222222;stroke-width:1.0;"/><rect fill="#F1F1F1" height="33.9688" rx="12.5" ry="12.5" style="stroke:#181818;stroke-width:0.5;" width="152" x="51" y="78.6982"/><text fill="#000000" font-family="sans-serif" font-size="12" lengthAdjust="spacing" textLength="132" x="61" y="99.8369">&#21220;&#24608;&#31649;&#29702;&#12471;&#12473;&#12486;&#12512;&#12434;&#38283;&#12367;</text><rect fill="#F1F1F1" height="33.9688" rx="12.5" ry="12.5" style="stroke:#181818;stroke-width:0.5;" width="188" x="33" y="186.6357"/><text fill="#000000" font-family="sans-serif" font-size="12" lengthAdjust="spacing" textLength="168" x="43" y="207.7744">&#20250;&#21729;&#30331;&#37682;&#12522;&#12531;&#12463;&#12434;&#12463;&#12522;&#12483;&#12463;&#12377;&#12427;</text><rect fill="#F1F1F1" height="33.9688" rx="12.5" ry="12.5" style="stroke:#181818;stroke-width:0.5;" width="92" x="81" y="294.5732"/><text fill="#000000" font-family="sans-serif" font-size="12" lengthAdjust="spacing" textLength="72" x="91" y="315.7119">&#20250;&#21729;&#30331;&#37682;&#12377;&#12427;</text><rect fill="#F1F1F1" height="33.9688" rx="12.5" ry="12.5" style="stroke:#181818;stroke-width:0.5;" width="164" x="45" y="456.4795"/><text fill="#000000" font-family="sans-serif" font-size="12" lengthAdjust="spacing" textLength="144" x="55" y="477.6182">&#12513;&#12540;&#12523;&#12463;&#12521;&#12452;&#12450;&#12531;&#12488;&#12434;&#38283;&#12367;</text><rect fill="#F1F1F1" height="33.9688" rx="12.5" ry="12.5" style="stroke:#181818;stroke-width:0.5;" width="212" x="21" y="510.4482"/><text fill="#000000" font-family="sans-serif" font-size="12" lengthAdjust="spacing" textLength="192" x="31" y="531.5869">&#30906;&#35469;&#12513;&#12540;&#12523;&#12398;&#12522;&#12531;&#12463;&#12434;&#12463;&#12522;&#12483;&#12463;&#12377;&#12427;</text><rect fill="#F1F1F1" height="33.9688" rx="12.5" ry="12.5" style="stroke:#181818;stroke-width:0.5;" width="164" x="45" y="672.3545"/><text fill="#000000" font-family="sans-serif" font-size="12" lengthAdjust="spacing" textLength="144" x="55" y="693.4932">&#21220;&#24608;&#31649;&#29702;&#12471;&#12473;&#12486;&#12512;&#12434;&#38281;&#12376;&#12427;</text><ellipse cx="127" cy="737.3232" fill="none" rx="11" ry="11" style="stroke:#222222;stroke-width:1.0;"/><ellipse cx="127" cy="737.3232" fill="#222222" rx="6" ry="6" style="stroke:#222222;stroke-width:1.0;"/><line style="stroke:#000000;stroke-width:1.5;" x1="15" x2="15" y1="12.7451" y2="748.3232"/><rect fill="#F1F1F1" height="33.9688" rx="12.5" ry="12.5" style="stroke:#181818;stroke-width:0.5;" width="164" x="249" y="132.667"/><text fill="#000000" font-family="sans-serif" font-size="12" lengthAdjust="spacing" textLength="144" x="259" y="153.8057">&#12525;&#12464;&#12452;&#12531;&#12506;&#12540;&#12472;&#12434;&#34920;&#31034;&#12377;&#12427;</text><rect fill="#F1F1F1" height="33.9688" rx="12.5" ry="12.5" style="stroke:#181818;stroke-width:0.5;" width="164" x="249" y="240.6045"/><text fill="#000000" font-family="sans-serif" font-size="12" lengthAdjust="spacing" textLength="144" x="259" y="261.7432">&#20250;&#21729;&#30331;&#37682;&#12506;&#12540;&#12472;&#12434;&#34920;&#31034;&#12377;&#12427;</text><rect fill="#F1F1F1" height="33.9688" rx="12.5" ry="12.5" style="stroke:#181818;stroke-width:0.5;" width="128" x="267" y="348.542"/><text fill="#000000" font-family="sans-serif" font-size="12" lengthAdjust="spacing" textLength="108" x="277" y="369.6807">&#20250;&#21729;&#24773;&#22577;&#12434;&#35352;&#37682;&#12377;&#12427;</text><rect fill="#F1F1F1" height="33.9688" rx="12.5" ry="12.5" style="stroke:#181818;stroke-width:0.5;" width="176" x="243" y="402.5107"/><text fill="#000000" font-family="sans-serif" font-size="12" lengthAdjust="spacing" textLength="156" x="253" y="423.6494">&#12513;&#12540;&#12523;&#30906;&#35469;&#12506;&#12540;&#12472;&#12434;&#34920;&#31034;&#12377;&#12427;</text><rect fill="#F1F1F1" height="33.9688" rx="12.5" ry="12.5" style="stroke:#181818;stroke-width:0.5;" width="164" x="249" y="564.417"/><text fill="#000000" font-family="sans-serif" font-size="12" lengthAdjust="spacing" textLength="144" x="259" y="585.5557">&#12513;&#12540;&#12523;&#30906;&#35469;&#23436;&#20102;&#12434;&#35352;&#37682;&#12377;&#12427;</text><rect fill="#F1F1F1" height="33.9688" rx="12.5" ry="12.5" style="stroke:#181818;stroke-width:0.5;" width="140" x="261" y="618.3857"/><text fill="#000000" font-family="sans-serif" font-size="12" lengthAdjust="spacing" textLength="120" x="271" y="639.5244">&#25171;&#21051;&#12506;&#12540;&#12472;&#12434;&#34920;&#31034;&#12377;&#12427;</text><line style="stroke:#000000;stroke-width:1.5;" x1="237" x2="237" y1="12.7451" y2="748.3232"/><line style="stroke:#000000;stroke-width:1.5;" x1="423" x2="423" y1="12.7451" y2="748.3232"/><line style="stroke:#181818;stroke-width:1.0;" x1="127" x2="127" y1="58.6982" y2="78.6982"/><polygon fill="#181818" points="123,68.6982,127,78.6982,131,68.6982,127,72.6982" style="stroke:#181818;stroke-width:1.0;"/><line style="stroke:#181818;stroke-width:1.0;" x1="127" x2="127" y1="490.4482" y2="510.4482"/><polygon fill="#181818" points="123,500.4482,127,510.4482,131,500.4482,127,504.4482" style="stroke:#181818;stroke-width:1.0;"/><line style="stroke:#181818;stroke-width:1.0;" x1="127" x2="127" y1="706.3232" y2="726.3232"/><polygon fill="#181818" points="123,716.3232,127,726.3232,131,716.3232,127,720.3232" style="stroke:#181818;stroke-width:1.0;"/><line style="stroke:#181818;stroke-width:1.0;" x1="331" x2="331" y1="382.5107" y2="402.5107"/><polygon fill="#181818" points="327,392.5107,331,402.5107,335,392.5107,331,396.5107" style="stroke:#181818;stroke-width:1.0;"/><line style="stroke:#181818;stroke-width:1.0;" x1="331" x2="331" y1="598.3857" y2="618.3857"/><polygon fill="#181818" points="327,608.3857,331,618.3857,335,608.3857,331,612.3857" style="stroke:#181818;stroke-width:1.0;"/><line style="stroke:#181818;stroke-width:1.0;" x1="127" x2="127" y1="112.667" y2="117.667"/><line style="stroke:#181818;stroke-width:1.0;" x1="127" x2="331" y1="117.667" y2="117.667"/><line style="stroke:#181818;stroke-width:1.0;" x1="331" x2="331" y1="117.667" y2="132.667"/><polygon fill="#181818" points="327,122.667,331,132.667,335,122.667,331,126.667" style="stroke:#181818;stroke-width:1.0;"/><line style="stroke:#181818;stroke-width:1.0;" x1="331" x2="331" y1="166.6357" y2="171.6357"/><line style="stroke:#181818;stroke-width:1.0;" x1="331" x2="127" y1="171.6357" y2="171.6357"/><line style="stroke:#181818;stroke-width:1.0;" x1="127" x2="127" y1="171.6357" y2="186.6357"/><polygon fill="#181818" points="123,176.6357,127,186.6357,131,176.6357,127,180.6357" style="stroke:#181818;stroke-width:1.0;"/><line style="stroke:#181818;stroke-width:1.0;" x1="127" x2="127" y1="220.6045" y2="225.6045"/><line style="stroke:#181818;stroke-width:1.0;" x1="127" x2="331" y1="225.6045" y2="225.6045"/><line style="stroke:#181818;stroke-width:1.0;" x1="331" x2="331" y1="225.6045" y2="240.6045"/><polygon fill="#181818" points="327,230.6045,331,240.6045,335,230.6045,331,234.6045" style="stroke:#181818;stroke-width:1.0;"/><line style="stroke:#181818;stroke-width:1.0;" x1="331" x2="331" y1="274.5732" y2="279.5732"/><line style="stroke:#181818;stroke-width:1.0;" x1="331" x2="127" y1="279.5732" y2="279.5732"/><line style="stroke:#181818;stroke-width:1.0;" x1="127" x2="127" y1="279.5732" y2="294.5732"/><polygon fill="#181818" points="123,284.5732,127,294.5732,131,284.5732,127,288.5732" style="stroke:#181818;stroke-width:1.0;"/><line style="stroke:#181818;stroke-width:1.0;" x1="127" x2="127" y1="328.542" y2="333.542"/><line style="stroke:#181818;stroke-width:1.0;" x1="127" x2="331" y1="333.542" y2="333.542"/><line style="stroke:#181818;stroke-width:1.0;" x1="331" x2="331" y1="333.542" y2="348.542"/><polygon fill="#181818" points="327,338.542,331,348.542,335,338.542,331,342.542" style="stroke:#181818;stroke-width:1.0;"/><line style="stroke:#181818;stroke-width:1.0;" x1="331" x2="331" y1="436.4795" y2="441.4795"/><line style="stroke:#181818;stroke-width:1.0;" x1="331" x2="127" y1="441.4795" y2="441.4795"/><line style="stroke:#181818;stroke-width:1.0;" x1="127" x2="127" y1="441.4795" y2="456.4795"/><polygon fill="#181818" points="123,446.4795,127,456.4795,131,446.4795,127,450.4795" style="stroke:#181818;stroke-width:1.0;"/><line style="stroke:#181818;stroke-width:1.0;" x1="127" x2="127" y1="544.417" y2="549.417"/><line style="stroke:#181818;stroke-width:1.0;" x1="127" x2="331" y1="549.417" y2="549.417"/><line style="stroke:#181818;stroke-width:1.0;" x1="331" x2="331" y1="549.417" y2="564.417"/><polygon fill="#181818" points="327,554.417,331,564.417,335,554.417,331,558.417" style="stroke:#181818;stroke-width:1.0;"/><line style="stroke:#181818;stroke-width:1.0;" x1="331" x2="331" y1="652.3545" y2="657.3545"/><line style="stroke:#181818;stroke-width:1.0;" x1="331" x2="127" y1="657.3545" y2="657.3545"/><line style="stroke:#181818;stroke-width:1.0;" x1="127" x2="127" y1="657.3545" y2="672.3545"/><polygon fill="#181818" points="123,662.3545,127,672.3545,131,662.3545,127,666.3545" style="stroke:#181818;stroke-width:1.0;"/><text fill="#000000" font-family="sans-serif" font-size="18" lengthAdjust="spacing" textLength="36" x="108" y="29.4531">&#31038;&#21729;</text><text fill="#000000" font-family="sans-serif" font-size="18" lengthAdjust="spacing" textLength="144" x="258" y="29.4531">&#21220;&#24608;&#31649;&#29702;&#12471;&#12473;&#12486;&#12512;</text><!--SRC=[fL9BYi904DtdIF4qda3HBBEOL65GeioWCAYhHBBmW_6t68qobtbsEjx2xa06Hp54t3JLy3xr7cNBy5SC0jjeMjM6PPZ22vCFNqQ1_791Fw03s0NxeFxbsuFpMJ7iPnZRCC5Bq1eKWdVWCVW4sYjk6anb6CCPWJoba9kQvzDO3N9ql7ItuBbcqKhXzQk_h8USLU3xN-T5tzBw2RU4lz6oq-4DKQKEj2Clv2HEvxqo2_nHigGptHXDijBQDrMRkM0ETg9tMhhRKqJTS-m-naaw0z4-babHU2qTECCCtxHgzIi0]--></g></svg>