<?xml version="1.0" encoding="us-ascii" standalone="no"?><svg xmlns="http://www.w3.org/2000/svg" xmlns:xlink="http://www.w3.org/1999/xlink" contentStyleType="text/css" height="988px" preserveAspectRatio="none" style="width:463px;height:988px;background:#FFFFFF;" version="1.1" viewBox="0 0 463 988" width="463px" zoomAndPan="magnify"><defs/><g><rect fill="none" height="20.9531" style="stroke:none;stroke-width:1.0;" width="430" x="15" y="12.7451"/><ellipse cx="130" cy="48.6982" fill="#222222" rx="10" ry="10" style="stroke:#222222;stroke-width:1.0;"/><rect fill="#F1F1F1" height="33.9688" rx="12.5" ry="12.5" style="stroke:#181818;stroke-width:0.5;" width="152" x="54" y="78.6982"/><text fill="#000000" font-family="sans-serif" font-size="12" lengthAdjust="spacing" textLength="132" x="64" y="99.8369">&#21220;&#24608;&#31649;&#29702;&#12471;&#12473;&#12486;&#12512;&#12434;&#38283;&#12367;</text><rect fill="#F1F1F1" height="33.9688" rx="12.5" ry="12.5" style="stroke:#181818;stroke-width:0.5;" width="92" x="84" y="186.6357"/><text fill="#000000" font-family="sans-serif" font-size="12" lengthAdjust="spacing" textLength="72" x="94" y="207.7744">&#12525;&#12464;&#12452;&#12531;&#12377;&#12427;</text><rect fill="#F1F1F1" height="33.9688" rx="12.5" ry="12.5" style="stroke:#181818;stroke-width:0.5;" width="140" x="60" y="294.5732"/><text fill="#000000" font-family="sans-serif" font-size="12" lengthAdjust="spacing" textLength="120" x="70" y="315.7119">&#20250;&#21729;&#19968;&#35239;&#12522;&#12531;&#12463;&#12434;&#25276;&#12377;</text><rect fill="#F1F1F1" height="33.9688" rx="12.5" ry="12.5" style="stroke:#181818;stroke-width:0.5;" width="164" x="48" y="402.5107"/><text fill="#000000" font-family="sans-serif" font-size="12" lengthAdjust="spacing" textLength="144" x="58" y="423.6494">&#35413;&#20385;&#12375;&#12383;&#12356;&#20250;&#21729;&#12434;&#26908;&#32034;&#12377;&#12427;</text><rect fill="#F1F1F1" height="33.9688" rx="12.5" ry="12.5" style="stroke:#181818;stroke-width:0.5;" width="140" x="60" y="510.4482"/><text fill="#000000" font-family="sans-serif" font-size="12" lengthAdjust="spacing" textLength="120" x="70" y="531.5869">&#21220;&#24608;&#24773;&#22577;&#12522;&#12531;&#12463;&#12434;&#25276;&#12377;</text><rect fill="#F1F1F1" height="33.9688" rx="12.5" ry="12.5" style="stroke:#181818;stroke-width:0.5;" width="128" x="66" y="618.3857"/><text fill="#000000" font-family="sans-serif" font-size="12" lengthAdjust="spacing" textLength="108" x="76" y="639.5244">&#21220;&#24608;&#24773;&#22577;&#12434;&#30906;&#35469;&#12377;&#12427;</text><rect fill="#F1F1F1" height="33.9688" rx="12.5" ry="12.5" style="stroke:#181818;stroke-width:0.5;" width="140" x="60" y="716.3545"/><text fill="#000000" font-family="sans-serif" font-size="12" lengthAdjust="spacing" textLength="120" x="70" y="737.4932">&#27425;&#12506;&#12540;&#12472;&#12508;&#12479;&#12531;&#12434;&#25276;&#12377;</text><rect fill="#F1F1F1" height="33.9688" rx="12.5" ry="12.5" style="stroke:#181818;stroke-width:0.5;" width="128" x="66" y="824.292"/><text fill="#000000" font-family="sans-serif" font-size="12" lengthAdjust="spacing" textLength="108" x="76" y="845.4307">&#21220;&#24608;&#24773;&#22577;&#12434;&#30906;&#35469;&#12377;&#12427;</text><polygon fill="#F1F1F1" points="91.5,672.3545,168.5,672.3545,180.5,684.3545,168.5,696.3545,91.5,696.3545,79.5,684.3545,91.5,672.3545" style="stroke:#181818;stroke-width:0.5;"/><text fill="#000000" font-family="sans-serif" font-size="11" lengthAdjust="spacing" textLength="77" x="91.5" y="688.1626">&#27425;&#12506;&#12540;&#12472;&#12364;&#12354;&#12427;</text><rect fill="#F1F1F1" height="33.9688" rx="12.5" ry="12.5" style="stroke:#181818;stroke-width:0.5;" width="164" x="48" y="900.2607"/><text fill="#000000" font-family="sans-serif" font-size="12" lengthAdjust="spacing" textLength="144" x="58" y="921.3994">&#21220;&#24608;&#31649;&#29702;&#12471;&#12473;&#12486;&#12512;&#12434;&#38281;&#12376;&#12427;</text><ellipse cx="130" cy="965.2295" fill="none" rx="11" ry="11" style="stroke:#222222;stroke-width:1.0;"/><ellipse cx="130" cy="965.2295" fill="#222222" rx="6" ry="6" style="stroke:#222222;stroke-width:1.0;"/><line style="stroke:#000000;stroke-width:1.5;" x1="15" x2="15" y1="12.7451" y2="976.2295"/><rect fill="#F1F1F1" height="33.9688" rx="12.5" ry="12.5" style="stroke:#181818;stroke-width:0.5;" width="164" x="263" y="132.667"/><text fill="#000000" font-family="sans-serif" font-size="12" lengthAdjust="spacing" textLength="144" x="273" y="153.8057">&#12525;&#12464;&#12452;&#12531;&#12506;&#12540;&#12472;&#12434;&#34920;&#31034;&#12377;&#12427;</text><rect fill="#F1F1F1" height="33.9688" rx="12.5" ry="12.5" style="stroke:#181818;stroke-width:0.5;" width="140" x="275" y="240.6045"/><text fill="#000000" font-family="sans-serif" font-size="12" lengthAdjust="spacing" textLength="120" x="285" y="261.7432">&#25171;&#21051;&#12506;&#12540;&#12472;&#12434;&#34920;&#31034;&#12377;&#12427;</text><rect fill="#F1F1F1" height="33.9688" rx="12.5" ry="12.5" style="stroke:#181818;stroke-width:0.5;" width="164" x="263" y="348.542"/><text fill="#000000" font-family="sans-serif" font-size="12" lengthAdjust="spacing" textLength="144" x="273" y="369.6807">&#20250;&#21729;&#19968;&#35239;&#12506;&#12540;&#12472;&#12434;&#34920;&#31034;&#12377;&#12427;</text><rect fill="#F1F1F1" height="33.9688" rx="12.5" ry="12.5" style="stroke:#181818;stroke-width:0.5;" width="128" x="281" y="456.4795"/><text fill="#000000" font-family="sans-serif" font-size="12" lengthAdjust="spacing" textLength="108" x="291" y="477.6182">&#26908;&#32034;&#32080;&#26524;&#12434;&#34920;&#31034;&#12377;&#12427;</text><rect fill="#F1F1F1" height="33.9688" rx="12.5" ry="12.5" style="stroke:#181818;stroke-width:0.5;" width="176" x="257" y="564.417"/><text fill="#000000" font-family="sans-serif" font-size="12" lengthAdjust="spacing" textLength="156" x="267" y="585.5557">&#20250;&#21729;&#21029;&#21220;&#24608;&#12506;&#12540;&#12472;&#12434;&#34920;&#31034;&#12377;&#12427;</text><rect fill="#F1F1F1" height="33.9688" rx="12.5" ry="12.5" style="stroke:#181818;stroke-width:0.5;" width="188" x="251" y="770.3232"/><text fill="#000000" font-family="sans-serif" font-size="12" lengthAdjust="spacing" textLength="168" x="261" y="791.4619">&#27425;&#12506;&#12540;&#12472;&#12398;&#21220;&#24608;&#24773;&#22577;&#12434;&#34920;&#31034;&#12377;&#12427;</text><line style="stroke:#000000;stroke-width:1.5;" x1="245" x2="245" y1="12.7451" y2="976.2295"/><line style="stroke:#000000;stroke-width:1.5;" x1="443" x2="443" y1="12.7451" y2="976.2295"/><line style="stroke:#181818;stroke-width:1.0;" x1="130" x2="130" y1="58.6982" y2="78.6982"/><polygon fill="#181818" points="126,68.6982,130,78.6982,134,68.6982,130,72.6982" style="stroke:#181818;stroke-width:1.0;"/><line style="stroke:#181818;stroke-width:1.0;" x1="130" x2="130" y1="696.3545" y2="716.3545"/><polygon fill="#181818" points="126,706.3545,130,716.3545,134,706.3545,130,710.3545" style="stroke:#181818;stroke-width:1.0;"/><line style="stroke:#181818;stroke-width:1.0;" x1="130" x2="130" y1="858.2607" y2="868.2607"/><line style="stroke:#181818;stroke-width:1.0;" x1="130" x2="226" y1="868.2607" y2="868.2607"/><polygon fill="#181818" points="222,785.3076,226,775.3076,230,785.3076,226,781.3076" style="stroke:#181818;stroke-width:1.0;"/><line style="stroke:#181818;stroke-width:1.0;" x1="226" x2="226" y1="684.3545" y2="868.2607"/><line style="stroke:#181818;stroke-width:1.0;" x1="226" x2="180.5" y1="684.3545" y2="684.3545"/><polygon fill="#181818" points="190.5,680.3545,180.5,684.3545,190.5,688.3545,186.5,684.3545" style="stroke:#181818;stroke-width:1.0;"/><line style="stroke:#181818;stroke-width:1.0;" x1="79.5" x2="34" y1="684.3545" y2="684.3545"/><polygon fill="#181818" points="30,771.3076,34,781.3076,38,771.3076,34,775.3076" style="stroke:#181818;stroke-width:1.0;"/><line style="stroke:#181818;stroke-width:1.0;" x1="34" x2="34" y1="684.3545" y2="880.2607"/><line style="stroke:#181818;stroke-width:1.0;" x1="34" x2="130" y1="880.2607" y2="880.2607"/><line style="stroke:#181818;stroke-width:1.0;" x1="130" x2="130" y1="880.2607" y2="900.2607"/><polygon fill="#181818" points="126,890.2607,130,900.2607,134,890.2607,130,894.2607" style="stroke:#181818;stroke-width:1.0;"/><line style="stroke:#181818;stroke-width:1.0;" x1="130" x2="130" y1="652.3545" y2="672.3545"/><polygon fill="#181818" points="126,662.3545,130,672.3545,134,662.3545,130,666.3545" style="stroke:#181818;stroke-width:1.0;"/><line style="stroke:#181818;stroke-width:1.0;" x1="130" x2="130" y1="934.2295" y2="954.2295"/><polygon fill="#181818" points="126,944.2295,130,954.2295,134,944.2295,130,948.2295" style="stroke:#181818;stroke-width:1.0;"/><line style="stroke:#181818;stroke-width:1.0;" x1="130" x2="130" y1="112.667" y2="117.667"/><line style="stroke:#181818;stroke-width:1.0;" x1="130" x2="345" y1="117.667" y2="117.667"/><line style="stroke:#181818;stroke-width:1.0;" x1="345" x2="345" y1="117.667" y2="132.667"/><polygon fill="#181818" points="341,122.667,345,132.667,349,122.667,345,126.667" style="stroke:#181818;stroke-width:1.0;"/><line style="stroke:#181818;stroke-width:1.0;" x1="345" x2="345" y1="166.6357" y2="171.6357"/><line style="stroke:#181818;stroke-width:1.0;" x1="345" x2="130" y1="171.6357" y2="171.6357"/><line style="stroke:#181818;stroke-width:1.0;" x1="130" x2="130" y1="171.6357" y2="186.6357"/><polygon fill="#181818" points="126,176.6357,130,186.6357,134,176.6357,130,180.6357" style="stroke:#181818;stroke-width:1.0;"/><line style="stroke:#181818;stroke-width:1.0;" x1="130" x2="130" y1="220.6045" y2="225.6045"/><line style="stroke:#181818;stroke-width:1.0;" x1="130" x2="345" y1="225.6045" y2="225.6045"/><line style="stroke:#181818;stroke-width:1.0;" x1="345" x2="345" y1="225.6045" y2="240.6045"/><polygon fill="#181818" points="341,230.6045,345,240.6045,349,230.6045,345,234.6045" style="stroke:#181818;stroke-width:1.0;"/><line style="stroke:#181818;stroke-width:1.0;" x1="345" x2="345" y1="274.5732" y2="279.5732"/><line style="stroke:#181818;stroke-width:1.0;" x1="345" x2="130" y1="279.5732" y2="279.5732"/><line style="stroke:#181818;stroke-width:1.0;" x1="130" x2="130" y1="279.5732" y2="294.5732"/><polygon fill="#181818" points="126,284.5732,130,294.5732,134,284.5732,130,288.5732" style="stroke:#181818;stroke-width:1.0;"/><line style="stroke:#181818;stroke-width:1.0;" x1="130" x2="130" y1="328.542" y2="333.542"/><line style="stroke:#181818;stroke-width:1.0;" x1="130" x2="345" y1="333.542" y2="333.542"/><line style="stroke:#181818;stroke-width:1.0;" x1="345" x2="345" y1="333.542" y2="348.542"/><polygon fill="#181818" points="341,338.542,345,348.542,349,338.542,345,342.542" style="stroke:#181818;stroke-width:1.0;"/><line style="stroke:#181818;stroke-width:1.0;" x1="345" x2="345" y1="382.5107" y2="387.5107"/><line style="stroke:#181818;stroke-width:1.0;" x1="345" x2="130" y1="387.5107" y2="387.5107"/><line style="stroke:#181818;stroke-width:1.0;" x1="130" x2="130" y1="387.5107" y2="402.5107"/><polygon fill="#181818" points="126,392.5107,130,402.5107,134,392.5107,130,396.5107" style="stroke:#181818;stroke-width:1.0;"/><line style="stroke:#181818;stroke-width:1.0;" x1="130" x2="130" y1="436.4795" y2="441.4795"/><line style="stroke:#181818;stroke-width:1.0;" x1="130" x2="345" y1="441.4795" y2="441.4795"/><line style="stroke:#181818;stroke-width:1.0;" x1="345" x2="345" y1="441.4795" y2="456.4795"/><polygon fill="#181818" points="341,446.4795,345,456.4795,349,446.4795,345,450.4795" style="stroke:#181818;stroke-width:1.0;"/><line style="stroke:#181818;stroke-width:1.0;" x1="345" x2="345" y1="490.4482" y2="495.4482"/><line style="stroke:#181818;stroke-width:1.0;" x1="345" x2="130" y1="495.4482" y2="495.4482"/><line style="stroke:#181818;stroke-width:1.0;" x1="130" x2="130" y1="495.4482" y2="510.4482"/><polygon fill="#181818" points="126,500.4482,130,510.4482,134,500.4482,130,504.4482" style="stroke:#181818;stroke-width:1.0;"/><line style="stroke:#181818;stroke-width:1.0;" x1="130" x2="130" y1="544.417" y2="549.417"/><line style="stroke:#181818;stroke-width:1.0;" x1="130" x2="345" y1="549.417" y2="549.417"/><line style="stroke:#181818;stroke-width:1.0;" x1="345" x2="345" y1="549.417" y2="564.417"/><polygon fill="#181818" points="341,554.417,345,564.417,349,554.417,345,558.417" style="stroke:#181818;stroke-width:1.0;"/><line style="stroke:#181818;stroke-width:1.0;" x1="345" x2="345" y1="598.3857" y2="603.3857"/><line style="stroke:#181818;stroke-width:1.0;" x1="345" x2="130" y1="603.3857" y2="603.3857"/><line style="stroke:#181818;stroke-width:1.0;" x1="130" x2="130" y1="603.3857" y2="618.3857"/><polygon fill="#181818" points="126,608.3857,130,618.3857,134,608.3857,130,612.3857" style="stroke:#181818;stroke-width:1.0;"/><line style="stroke:#181818;stroke-width:1.0;" x1="130" x2="130" y1="750.3232" y2="755.3232"/><line style="stroke:#181818;stroke-width:1.0;" x1="130" x2="345" y1="755.3232" y2="755.3232"/><line style="stroke:#181818;stroke-width:1.0;" x1="345" x2="345" y1="755.3232" y2="770.3232"/><polygon fill="#181818" points="341,760.3232,345,770.3232,349,760.3232,345,764.3232" style="stroke:#181818;stroke-width:1.0;"/><line style="stroke:#181818;stroke-width:1.0;" x1="345" x2="345" y1="804.292" y2="809.292"/><line style="stroke:#181818;stroke-width:1.0;" x1="345" x2="130" y1="809.292" y2="809.292"/><line style="stroke:#181818;stroke-width:1.0;" x1="130" x2="130" y1="809.292" y2="824.292"/><polygon fill="#181818" points="126,814.292,130,824.292,134,814.292,130,818.292" style="stroke:#181818;stroke-width:1.0;"/><text fill="#000000" font-family="sans-serif" font-size="18" lengthAdjust="spacing" textLength="90" x="85" y="29.4531">&#20154;&#20107;&#25285;&#24403;&#32773;</text><text fill="#000000" font-family="sans-serif" font-size="18" lengthAdjust="spacing" textLength="144" x="272" y="29.4531">&#21220;&#24608;&#31649;&#29702;&#12471;&#12473;&#12486;&#12512;</text><!--SRC=[dPFBIiD068NtynHPwYl4fn4iA8YA3RZ98ZDZIciKIuEtKZGfyLQqAbQiCUh3_7E9R-4qeSgq61lN_pddEsVnsooEMUm9p-LlVkguDgfQYviMChaN2IUG_L0sQq2UWRm0hG4DWBG-3pt0-ml8_arZ8nFeBP1x817GHw1je0cGeVAcuPMCOi0dG3oLC4NNZMDP0KWqV5v_BOLWIPlx8HiwwSKbqDu8HEwKKUmaobMCqxqbeEdr0NiF0Hy1FWEydUUCe5573hepBSsKygafJZkp4FCeGLqUFFnl9g-VvvfIIpKkQSbkdFRsnlgjvPNLYZ4dRiAVJBmBcAZhF38CKxjGDVGZA_xTsZ0AUa_wSN-YZ5vUPKtLLn650ofhIzc6Fpwa0VWuqrUjzOql]--></g></svg>