<?xml version="1.0" encoding="us-ascii" standalone="no"?><svg xmlns="http://www.w3.org/2000/svg" xmlns:xlink="http://www.w3.org/1999/xlink" contentStyleType="text/css" height="544px" preserveAspectRatio="none" style="width:407px;height:544px;background:#FFFFFF;" version="1.1" viewBox="0 0 407 544" width="407px" zoomAndPan="magnify"><defs/><g><rect fill="none" height="20.9531" style="stroke:none;stroke-width:1.0;" width="374" x="15" y="12.7451"/><ellipse cx="115" cy="48.6982" fill="#222222" rx="10" ry="10" style="stroke:#222222;stroke-width:1.0;"/><rect fill="#F1F1F1" height="33.9688" rx="12.5" ry="12.5" style="stroke:#181818;stroke-width:0.5;" width="152" x="39" y="78.6982"/><text fill="#000000" font-family="sans-serif" font-size="12" lengthAdjust="spacing" textLength="132" x="49" y="99.8369">&#21220;&#24608;&#31649;&#29702;&#12471;&#12473;&#12486;&#12512;&#12434;&#38283;&#12367;</text><rect fill="#F1F1F1" height="33.9688" rx="12.5" ry="12.5" style="stroke:#181818;stroke-width:0.5;" width="188" x="21" y="186.6357"/><text fill="#000000" font-family="sans-serif" font-size="12" lengthAdjust="spacing" textLength="168" x="31" y="207.7744">&#20250;&#21729;&#30331;&#37682;&#12522;&#12531;&#12463;&#12434;&#12463;&#12522;&#12483;&#12463;&#12377;&#12427;</text><rect fill="#F1F1F1" height="33.9688" rx="12.5" ry="12.5" style="stroke:#181818;stroke-width:0.5;" width="92" x="69" y="294.5732"/><text fill="#000000" font-family="sans-serif" font-size="12" lengthAdjust="spacing" textLength="72" x="79" y="315.7119">&#20250;&#21729;&#30331;&#37682;&#12377;&#12427;</text><rect fill="#F1F1F1" height="33.9688" rx="12.5" ry="12.5" style="stroke:#181818;stroke-width:0.5;" width="164" x="33" y="456.4795"/><text fill="#000000" font-family="sans-serif" font-size="12" lengthAdjust="spacing" textLength="144" x="43" y="477.6182">&#21220;&#24608;&#31649;&#29702;&#12471;&#12473;&#12486;&#12512;&#12434;&#38281;&#12376;&#12427;</text><ellipse cx="115" cy="521.4482" fill="none" rx="11" ry="11" style="stroke:#222222;stroke-width:1.0;"/><ellipse cx="115" cy="521.4482" fill="#222222" rx="6" ry="6" style="stroke:#222222;stroke-width:1.0;"/><line style="stroke:#000000;stroke-width:1.5;" x1="15" x2="15" y1="12.7451" y2="532.4482"/><rect fill="#F1F1F1" height="33.9688" rx="12.5" ry="12.5" style="stroke:#181818;stroke-width:0.5;" width="164" x="219" y="132.667"/><text fill="#000000" font-family="sans-serif" font-size="12" lengthAdjust="spacing" textLength="144" x="229" y="153.8057">&#12525;&#12464;&#12452;&#12531;&#12506;&#12540;&#12472;&#12434;&#34920;&#31034;&#12377;&#12427;</text><rect fill="#F1F1F1" height="33.9688" rx="12.5" ry="12.5" style="stroke:#181818;stroke-width:0.5;" width="164" x="219" y="240.6045"/><text fill="#000000" font-family="sans-serif" font-size="12" lengthAdjust="spacing" textLength="144" x="229" y="261.7432">&#20250;&#21729;&#30331;&#37682;&#12506;&#12540;&#12472;&#12434;&#34920;&#31034;&#12377;&#12427;</text><rect fill="#F1F1F1" height="33.9688" rx="12.5" ry="12.5" style="stroke:#181818;stroke-width:0.5;" width="128" x="237" y="348.542"/><text fill="#000000" font-family="sans-serif" font-size="12" lengthAdjust="spacing" textLength="108" x="247" y="369.6807">&#20250;&#21729;&#24773;&#22577;&#12434;&#35352;&#37682;&#12377;&#12427;</text><rect fill="#F1F1F1" height="33.9688" rx="12.5" ry="12.5" style="stroke:#181818;stroke-width:0.5;" width="140" x="231" y="402.5107"/><text fill="#000000" font-family="sans-serif" font-size="12" lengthAdjust="spacing" textLength="120" x="241" y="423.6494">&#25171;&#21051;&#12506;&#12540;&#12472;&#12434;&#34920;&#31034;&#12377;&#12427;</text><line style="stroke:#000000;stroke-width:1.5;" x1="213" x2="213" y1="12.7451" y2="532.4482"/><line style="stroke:#000000;stroke-width:1.5;" x1="387" x2="387" y1="12.7451" y2="532.4482"/><line style="stroke:#181818;stroke-width:1.0;" x1="115" x2="115" y1="58.6982" y2="78.6982"/><polygon fill="#181818" points="111,68.6982,115,78.6982,119,68.6982,115,72.6982" style="stroke:#181818;stroke-width:1.0;"/><line style="stroke:#181818;stroke-width:1.0;" x1="115" x2="115" y1="490.4482" y2="510.4482"/><polygon fill="#181818" points="111,500.4482,115,510.4482,119,500.4482,115,504.4482" style="stroke:#181818;stroke-width:1.0;"/><line style="stroke:#181818;stroke-width:1.0;" x1="301" x2="301" y1="382.5107" y2="402.5107"/><polygon fill="#181818" points="297,392.5107,301,402.5107,305,392.5107,301,396.5107" style="stroke:#181818;stroke-width:1.0;"/><line style="stroke:#181818;stroke-width:1.0;" x1="115" x2="115" y1="112.667" y2="117.667"/><line style="stroke:#181818;stroke-width:1.0;" x1="115" x2="301" y1="117.667" y2="117.667"/><line style="stroke:#181818;stroke-width:1.0;" x1="301" x2="301" y1="117.667" y2="132.667"/><polygon fill="#181818" points="297,122.667,301,132.667,305,122.667,301,126.667" style="stroke:#181818;stroke-width:1.0;"/><line style="stroke:#181818;stroke-width:1.0;" x1="301" x2="301" y1="166.6357" y2="171.6357"/><line style="stroke:#181818;stroke-width:1.0;" x1="301" x2="115" y1="171.6357" y2="171.6357"/><line style="stroke:#181818;stroke-width:1.0;" x1="115" x2="115" y1="171.6357" y2="186.6357"/><polygon fill="#181818" points="111,176.6357,115,186.6357,119,176.6357,115,180.6357" style="stroke:#181818;stroke-width:1.0;"/><line style="stroke:#181818;stroke-width:1.0;" x1="115" x2="115" y1="220.6045" y2="225.6045"/><line style="stroke:#181818;stroke-width:1.0;" x1="115" x2="301" y1="225.6045" y2="225.6045"/><line style="stroke:#181818;stroke-width:1.0;" x1="301" x2="301" y1="225.6045" y2="240.6045"/><polygon fill="#181818" points="297,230.6045,301,240.6045,305,230.6045,301,234.6045" style="stroke:#181818;stroke-width:1.0;"/><line style="stroke:#181818;stroke-width:1.0;" x1="301" x2="301" y1="274.5732" y2="279.5732"/><line style="stroke:#181818;stroke-width:1.0;" x1="301" x2="115" y1="279.5732" y2="279.5732"/><line style="stroke:#181818;stroke-width:1.0;" x1="115" x2="115" y1="279.5732" y2="294.5732"/><polygon fill="#181818" points="111,284.5732,115,294.5732,119,284.5732,115,288.5732" style="stroke:#181818;stroke-width:1.0;"/><line style="stroke:#181818;stroke-width:1.0;" x1="115" x2="115" y1="328.542" y2="333.542"/><line style="stroke:#181818;stroke-width:1.0;" x1="115" x2="301" y1="333.542" y2="333.542"/><line style="stroke:#181818;stroke-width:1.0;" x1="301" x2="301" y1="333.542" y2="348.542"/><polygon fill="#181818" points="297,338.542,301,348.542,305,338.542,301,342.542" style="stroke:#181818;stroke-width:1.0;"/><line style="stroke:#181818;stroke-width:1.0;" x1="301" x2="301" y1="436.4795" y2="441.4795"/><line style="stroke:#181818;stroke-width:1.0;" x1="301" x2="115" y1="441.4795" y2="441.4795"/><line style="stroke:#181818;stroke-width:1.0;" x1="115" x2="115" y1="441.4795" y2="456.4795"/><polygon fill="#181818" points="111,446.4795,115,456.4795,119,446.4795,115,450.4795" style="stroke:#181818;stroke-width:1.0;"/><text fill="#000000" font-family="sans-serif" font-size="18" lengthAdjust="spacing" textLength="36" x="96" y="29.4531">&#31038;&#21729;</text><text fill="#000000" font-family="sans-serif" font-size="18" lengthAdjust="spacing" textLength="144" x="228" y="29.4531">&#21220;&#24608;&#31649;&#29702;&#12471;&#12473;&#12486;&#12512;</text><!--SRC=[bP3D2e9058NtFf8zJKzGfCjPv5oInA1827Mbu4A2_XVzABtCQPnyYsO2eHQ9RIxtmldE1vV9x2w2b1cMtH_PXYdyh1edSflAXGj-1h-2N502lgnNFfnvps2_CimmGHlmFNW6Ee5YK0b-KUmppMLsWnE1-wgXaPgFCbQBZ8fwTWIjDSLtAg-dFaal3TNY_UxvqzkvlwA9I0wwDWy_GBFo0Z4jkdXRt-l12TzvonuCNm00]--></g></svg>