<?xml version="1.0" encoding="us-ascii" standalone="no"?><svg xmlns="http://www.w3.org/2000/svg" xmlns:xlink="http://www.w3.org/1999/xlink" contentStyleType="text/css" height="924px" preserveAspectRatio="none" style="width:481px;height:924px;background:#FFFFFF;" version="1.1" viewBox="0 0 481 924" width="481px" zoomAndPan="magnify"><defs/><g><rect fill="none" height="20.9531" style="stroke:none;stroke-width:1.0;" width="448" x="15" y="12.7451"/><ellipse cx="148" cy="48.6982" fill="#222222" rx="10" ry="10" style="stroke:#222222;stroke-width:1.0;"/><rect fill="#F1F1F1" height="33.9688" rx="12.5" ry="12.5" style="stroke:#181818;stroke-width:0.5;" width="152" x="72" y="78.6982"/><text fill="#000000" font-family="sans-serif" font-size="12" lengthAdjust="spacing" textLength="132" x="82" y="99.8369">&#21220;&#24608;&#31649;&#29702;&#12471;&#12473;&#12486;&#12512;&#12434;&#38283;&#12367;</text><rect fill="#F1F1F1" height="33.9688" rx="12.5" ry="12.5" style="stroke:#181818;stroke-width:0.5;" width="92" x="102" y="186.6357"/><text fill="#000000" font-family="sans-serif" font-size="12" lengthAdjust="spacing" textLength="72" x="112" y="207.7744">&#12525;&#12464;&#12452;&#12531;&#12377;&#12427;</text><rect fill="#F1F1F1" height="33.9688" rx="12.5" ry="12.5" style="stroke:#181818;stroke-width:0.5;" width="140" x="78" y="294.5732"/><text fill="#000000" font-family="sans-serif" font-size="12" lengthAdjust="spacing" textLength="120" x="88" y="315.7119">&#26085;&#20184;&#19968;&#35239;&#12522;&#12531;&#12463;&#12434;&#25276;&#12377;</text><rect fill="#F1F1F1" height="33.9688" rx="12.5" ry="12.5" style="stroke:#181818;stroke-width:0.5;" width="140" x="78" y="500.4795"/><text fill="#000000" font-family="sans-serif" font-size="12" lengthAdjust="spacing" textLength="120" x="88" y="521.6182">&#27425;&#12506;&#12540;&#12472;&#12508;&#12479;&#12531;&#12434;&#25276;&#12377;</text><rect fill="#F1F1F1" height="33.9688" rx="12.5" ry="12.5" style="stroke:#181818;stroke-width:0.5;" width="128" x="84" y="608.417"/><text fill="#000000" font-family="sans-serif" font-size="12" lengthAdjust="spacing" textLength="108" x="94" y="629.5557">&#21220;&#24608;&#24773;&#22577;&#12434;&#30906;&#35469;&#12377;&#12427;</text><polygon fill="#F1F1F1" points="109.5,456.4795,186.5,456.4795,198.5,468.4795,186.5,480.4795,109.5,480.4795,97.5,468.4795,109.5,456.4795" style="stroke:#181818;stroke-width:0.5;"/><text fill="#000000" font-family="sans-serif" font-size="11" lengthAdjust="spacing" textLength="77" x="109.5" y="472.2876">&#27425;&#12506;&#12540;&#12472;&#12364;&#12354;&#12427;</text><rect fill="#F1F1F1" height="33.9688" rx="12.5" ry="12.5" style="stroke:#181818;stroke-width:0.5;" width="116" x="90" y="684.3857"/><text fill="#000000" font-family="sans-serif" font-size="12" lengthAdjust="spacing" textLength="96" x="100" y="705.5244">&#21069;&#26085;&#12508;&#12479;&#12531;&#12434;&#25276;&#12377;</text><rect fill="#F1F1F1" height="33.9688" rx="12.5" ry="12.5" style="stroke:#181818;stroke-width:0.5;" width="128" x="84" y="402.5107"/><text fill="#000000" font-family="sans-serif" font-size="12" lengthAdjust="spacing" textLength="108" x="94" y="423.6494">&#21220;&#24608;&#24773;&#22577;&#12434;&#30906;&#35469;&#12377;&#12427;</text><polygon fill="#F1F1F1" points="87.5,792.3232,208.5,792.3232,220.5,804.3232,208.5,816.3232,87.5,816.3232,75.5,804.3232,87.5,792.3232" style="stroke:#181818;stroke-width:0.5;"/><text fill="#000000" font-family="sans-serif" font-size="11" lengthAdjust="spacing" textLength="121" x="87.5" y="808.1313">&#26085;&#20184;&#12364;&#35413;&#20385;&#26399;&#38291;&#20013;&#12391;&#12354;&#12427;</text><rect fill="#F1F1F1" height="33.9688" rx="12.5" ry="12.5" style="stroke:#181818;stroke-width:0.5;" width="164" x="66" y="836.3232"/><text fill="#000000" font-family="sans-serif" font-size="12" lengthAdjust="spacing" textLength="144" x="76" y="857.4619">&#21220;&#24608;&#31649;&#29702;&#12471;&#12473;&#12486;&#12512;&#12434;&#38281;&#12376;&#12427;</text><ellipse cx="148" cy="901.292" fill="none" rx="11" ry="11" style="stroke:#222222;stroke-width:1.0;"/><ellipse cx="148" cy="901.292" fill="#222222" rx="6" ry="6" style="stroke:#222222;stroke-width:1.0;"/><line style="stroke:#000000;stroke-width:1.5;" x1="15" x2="15" y1="12.7451" y2="912.292"/><rect fill="#F1F1F1" height="33.9688" rx="12.5" ry="12.5" style="stroke:#181818;stroke-width:0.5;" width="164" x="281" y="132.667"/><text fill="#000000" font-family="sans-serif" font-size="12" lengthAdjust="spacing" textLength="144" x="291" y="153.8057">&#12525;&#12464;&#12452;&#12531;&#12506;&#12540;&#12472;&#12434;&#34920;&#31034;&#12377;&#12427;</text><rect fill="#F1F1F1" height="33.9688" rx="12.5" ry="12.5" style="stroke:#181818;stroke-width:0.5;" width="140" x="293" y="240.6045"/><text fill="#000000" font-family="sans-serif" font-size="12" lengthAdjust="spacing" textLength="120" x="303" y="261.7432">&#25171;&#21051;&#12506;&#12540;&#12472;&#12434;&#34920;&#31034;&#12377;&#12427;</text><rect fill="#F1F1F1" height="33.9688" rx="12.5" ry="12.5" style="stroke:#181818;stroke-width:0.5;" width="176" x="275" y="348.542"/><text fill="#000000" font-family="sans-serif" font-size="12" lengthAdjust="spacing" textLength="156" x="285" y="369.6807">&#26085;&#20184;&#21029;&#21220;&#24608;&#12506;&#12540;&#12472;&#12434;&#34920;&#31034;&#12377;&#12427;</text><rect fill="#F1F1F1" height="33.9688" rx="12.5" ry="12.5" style="stroke:#181818;stroke-width:0.5;" width="188" x="269" y="554.4482"/><text fill="#000000" font-family="sans-serif" font-size="12" lengthAdjust="spacing" textLength="168" x="279" y="575.5869">&#27425;&#12506;&#12540;&#12472;&#12398;&#21220;&#24608;&#24773;&#22577;&#12434;&#34920;&#31034;&#12377;&#12427;</text><rect fill="#F1F1F1" height="33.9688" rx="12.5" ry="12.5" style="stroke:#181818;stroke-width:0.5;" width="164" x="281" y="738.3545"/><text fill="#000000" font-family="sans-serif" font-size="12" lengthAdjust="spacing" textLength="144" x="291" y="759.4932">&#21069;&#26085;&#12398;&#21220;&#24608;&#24773;&#22577;&#12434;&#34920;&#31034;&#12377;&#12427;</text><line style="stroke:#000000;stroke-width:1.5;" x1="263" x2="263" y1="12.7451" y2="912.292"/><line style="stroke:#000000;stroke-width:1.5;" x1="461" x2="461" y1="12.7451" y2="912.292"/><line style="stroke:#181818;stroke-width:1.0;" x1="148" x2="148" y1="58.6982" y2="78.6982"/><polygon fill="#181818" points="144,68.6982,148,78.6982,152,68.6982,148,72.6982" style="stroke:#181818;stroke-width:1.0;"/><line style="stroke:#181818;stroke-width:1.0;" x1="148" x2="148" y1="480.4795" y2="500.4795"/><polygon fill="#181818" points="144,490.4795,148,500.4795,152,490.4795,148,494.4795" style="stroke:#181818;stroke-width:1.0;"/><line style="stroke:#181818;stroke-width:1.0;" x1="148" x2="148" y1="642.3857" y2="652.3857"/><line style="stroke:#181818;stroke-width:1.0;" x1="148" x2="244" y1="652.3857" y2="652.3857"/><polygon fill="#181818" points="240,569.4326,244,559.4326,248,569.4326,244,565.4326" style="stroke:#181818;stroke-width:1.0;"/><line style="stroke:#181818;stroke-width:1.0;" x1="244" x2="244" y1="468.4795" y2="652.3857"/><line style="stroke:#181818;stroke-width:1.0;" x1="244" x2="198.5" y1="468.4795" y2="468.4795"/><polygon fill="#181818" points="208.5,464.4795,198.5,468.4795,208.5,472.4795,204.5,468.4795" style="stroke:#181818;stroke-width:1.0;"/><line style="stroke:#181818;stroke-width:1.0;" x1="97.5" x2="52" y1="468.4795" y2="468.4795"/><polygon fill="#181818" points="48,555.4326,52,565.4326,56,555.4326,52,559.4326" style="stroke:#181818;stroke-width:1.0;"/><line style="stroke:#181818;stroke-width:1.0;" x1="52" x2="52" y1="468.4795" y2="664.3857"/><line style="stroke:#181818;stroke-width:1.0;" x1="52" x2="148" y1="664.3857" y2="664.3857"/><line style="stroke:#181818;stroke-width:1.0;" x1="148" x2="148" y1="664.3857" y2="684.3857"/><polygon fill="#181818" points="144,674.3857,148,684.3857,152,674.3857,148,678.3857" style="stroke:#181818;stroke-width:1.0;"/><line style="stroke:#181818;stroke-width:1.0;" x1="148" x2="148" y1="436.4795" y2="456.4795"/><polygon fill="#181818" points="144,446.4795,148,456.4795,152,446.4795,148,450.4795" style="stroke:#181818;stroke-width:1.0;"/><line style="stroke:#181818;stroke-width:1.0;" x1="75.5" x2="34" y1="804.3232" y2="804.3232"/><polygon fill="#181818" points="30,620.9092,34,610.9092,38,620.9092,34,616.9092" style="stroke:#181818;stroke-width:1.0;"/><line style="stroke:#181818;stroke-width:1.0;" x1="34" x2="34" y1="419.4951" y2="804.3232"/><line style="stroke:#181818;stroke-width:1.0;" x1="34" x2="84" y1="419.4951" y2="419.4951"/><polygon fill="#181818" points="74,415.4951,84,419.4951,74,423.4951,78,419.4951" style="stroke:#181818;stroke-width:1.0;"/><line style="stroke:#181818;stroke-width:1.0;" x1="148" x2="148" y1="816.3232" y2="836.3232"/><polygon fill="#181818" points="144,826.3232,148,836.3232,152,826.3232,148,830.3232" style="stroke:#181818;stroke-width:1.0;"/><line style="stroke:#181818;stroke-width:1.0;" x1="148" x2="148" y1="870.292" y2="890.292"/><polygon fill="#181818" points="144,880.292,148,890.292,152,880.292,148,884.292" style="stroke:#181818;stroke-width:1.0;"/><line style="stroke:#181818;stroke-width:1.0;" x1="148" x2="148" y1="112.667" y2="117.667"/><line style="stroke:#181818;stroke-width:1.0;" x1="148" x2="363" y1="117.667" y2="117.667"/><line style="stroke:#181818;stroke-width:1.0;" x1="363" x2="363" y1="117.667" y2="132.667"/><polygon fill="#181818" points="359,122.667,363,132.667,367,122.667,363,126.667" style="stroke:#181818;stroke-width:1.0;"/><line style="stroke:#181818;stroke-width:1.0;" x1="363" x2="363" y1="166.6357" y2="171.6357"/><line style="stroke:#181818;stroke-width:1.0;" x1="363" x2="148" y1="171.6357" y2="171.6357"/><line style="stroke:#181818;stroke-width:1.0;" x1="148" x2="148" y1="171.6357" y2="186.6357"/><polygon fill="#181818" points="144,176.6357,148,186.6357,152,176.6357,148,180.6357" style="stroke:#181818;stroke-width:1.0;"/><line style="stroke:#181818;stroke-width:1.0;" x1="148" x2="148" y1="220.6045" y2="225.6045"/><line style="stroke:#181818;stroke-width:1.0;" x1="148" x2="363" y1="225.6045" y2="225.6045"/><line style="stroke:#181818;stroke-width:1.0;" x1="363" x2="363" y1="225.6045" y2="240.6045"/><polygon fill="#181818" points="359,230.6045,363,240.6045,367,230.6045,363,234.6045" style="stroke:#181818;stroke-width:1.0;"/><line style="stroke:#181818;stroke-width:1.0;" x1="363" x2="363" y1="274.5732" y2="279.5732"/><line style="stroke:#181818;stroke-width:1.0;" x1="363" x2="148" y1="279.5732" y2="279.5732"/><line style="stroke:#181818;stroke-width:1.0;" x1="148" x2="148" y1="279.5732" y2="294.5732"/><polygon fill="#181818" points="144,284.5732,148,294.5732,152,284.5732,148,288.5732" style="stroke:#181818;stroke-width:1.0;"/><line style="stroke:#181818;stroke-width:1.0;" x1="148" x2="148" y1="328.542" y2="333.542"/><line style="stroke:#181818;stroke-width:1.0;" x1="148" x2="363" y1="333.542" y2="333.542"/><line style="stroke:#181818;stroke-width:1.0;" x1="363" x2="363" y1="333.542" y2="348.542"/><polygon fill="#181818" points="359,338.542,363,348.542,367,338.542,363,342.542" style="stroke:#181818;stroke-width:1.0;"/><line style="stroke:#181818;stroke-width:1.0;" x1="148" x2="148" y1="534.4482" y2="539.4482"/><line style="stroke:#181818;stroke-width:1.0;" x1="148" x2="363" y1="539.4482" y2="539.4482"/><line style="stroke:#181818;stroke-width:1.0;" x1="363" x2="363" y1="539.4482" y2="554.4482"/><polygon fill="#181818" points="359,544.4482,363,554.4482,367,544.4482,363,548.4482" style="stroke:#181818;stroke-width:1.0;"/><line style="stroke:#181818;stroke-width:1.0;" x1="363" x2="363" y1="588.417" y2="593.417"/><line style="stroke:#181818;stroke-width:1.0;" x1="363" x2="148" y1="593.417" y2="593.417"/><line style="stroke:#181818;stroke-width:1.0;" x1="148" x2="148" y1="593.417" y2="608.417"/><polygon fill="#181818" points="144,598.417,148,608.417,152,598.417,148,602.417" style="stroke:#181818;stroke-width:1.0;"/><line style="stroke:#181818;stroke-width:1.0;" x1="148" x2="148" y1="718.3545" y2="723.3545"/><line style="stroke:#181818;stroke-width:1.0;" x1="148" x2="363" y1="723.3545" y2="723.3545"/><line style="stroke:#181818;stroke-width:1.0;" x1="363" x2="363" y1="723.3545" y2="738.3545"/><polygon fill="#181818" points="359,728.3545,363,738.3545,367,728.3545,363,732.3545" style="stroke:#181818;stroke-width:1.0;"/><line style="stroke:#181818;stroke-width:1.0;" x1="363" x2="363" y1="772.3232" y2="777.3232"/><line style="stroke:#181818;stroke-width:1.0;" x1="363" x2="148" y1="777.3232" y2="777.3232"/><line style="stroke:#181818;stroke-width:1.0;" x1="148" x2="148" y1="777.3232" y2="792.3232"/><polygon fill="#181818" points="144,782.3232,148,792.3232,152,782.3232,148,786.3232" style="stroke:#181818;stroke-width:1.0;"/><line style="stroke:#181818;stroke-width:1.0;" x1="363" x2="363" y1="382.5107" y2="387.5107"/><line style="stroke:#181818;stroke-width:1.0;" x1="363" x2="148" y1="387.5107" y2="387.5107"/><line style="stroke:#181818;stroke-width:1.0;" x1="148" x2="148" y1="387.5107" y2="402.5107"/><polygon fill="#181818" points="144,392.5107,148,402.5107,152,392.5107,148,396.5107" style="stroke:#181818;stroke-width:1.0;"/><text fill="#000000" font-family="sans-serif" font-size="18" lengthAdjust="spacing" textLength="90" x="94" y="29.4531">&#20154;&#20107;&#25285;&#24403;&#32773;</text><text fill="#000000" font-family="sans-serif" font-size="18" lengthAdjust="spacing" textLength="144" x="290" y="29.4531">&#21220;&#24608;&#31649;&#29702;&#12471;&#12473;&#12486;&#12512;</text><!--SRC=[bPBTJi8m5CUlswVWKbzXFWs9IpGnIc29DxjOsumm9z6uY6X8tCmG9O8QBnm3zM5Erusti4wd6SWMUjlpE_-FLkTXo4DRs6RqvYI6gUE6LgrhM8biNnXkFFRYqoRGLw0JO4rWBj2pUSS6ShA5zLKpEbQ0ZO0-0VM1lG2x0ZO36aWsyUvYFmHo2TIM6vRKys0sLY0aB2TgJTUI41TzFktom4Xk1y26NqBqKOBYQ2Qf4hcKZLhzxvbrTEjgJQrgbPzc1JCZzrbYyKsO3DiPXWvtTlVKoePuyFvsasCWL5vlOeIKt0th0Vr80_owHwZ0_o9FnWjkyY7ahgKO5NbACgZxssaCZ9J8QilA_lLPP3FZolojR3chCNqkMM1oVyxVFT6xddSS7eo03B9AYt-w1QIRIZMqWzed]--></g></svg>